# xmcd CD database file
#
# Track frame offsets:
#	182
#	12070
#	23660
#	33977
#	46640
#	52567
#	67060
#	79662
#	94580
#	104240
#	119290
#	130537
#	142442
#	159515
#	171910
#	186617
#	197845
#	211325
#	223715
#	233925
#	243485
#	256145
#	270907
#	283742
#	295492
#
# Disc length: 4086 seconds
#
# Revision: 6
# Processed by: cddbd v1.5.2PL0 Copyright (c) Steve Scherf et al.
# Submitted via: CDex 1.51
#
DISCID=6e0ff419
DTITLE=Various Artist - I Love Country
DYEAR=1993
DGENRE=Country
TTITLE0=Dell Reeves - Girl On The Bill Board
TTITLE1=Dell Reeves - Be Glad
TTITLE2=Faron Young - Hello Walls
TTITLE3=David Houston - My (Elusive Dreams)
TTITLE4=Tammy Wynette - Welcome To My World
TTITLE5=Loretta Lynn - Coal Miners Daughter
TTITLE6=Charlie Pride - Help Me Make It Through The Night
TTITLE7=Lynn Anderson - We've Only just Begun
TTITLE8=Skeeter Davis - I Can't Believe It's Over
TTITLE9=Barbara Fairchild - Baby Doll
TTITLE10=Don Gibson - Country Green
TTITLE11=Donna Fargo - Funny Face
TTITLE12=Tanya Tucker - The Night They Drove Ole Dixie Down
TTITLE13=Moe Bandy - Mind Your Own Business
TTITLE14=David Frizzell - I Love You In A Thousand Ways
TTITLE15=Faron Young - Country Girl
TTITLE16=David Houston - Almost Persuaded
TTITLE17=Ferlin Husky - The Letter You Promised To Write
TTITLE18=Loretta Lynn - You're Looking At The Country
TTITLE19=Charlie Pride - Kiss An Angel Good Morning
TTITLE20=Lynn Anderson - It Must Be Love
TTITLE21=Don Gibson - Woman (Sensuous Woman)
TTITLE22=Tanya Tucker - San Antonio Stroll
TTITLE23=Moe Bandy - Cheatin  Situation
TTITLE24=David Frizzell - Will It Be Love In The Morning
EXTD=YEAR: 1993
EXTT0=
EXTT1=
EXTT2=
EXTT3=
EXTT4=
EXTT5=
EXTT6=
EXTT7=
EXTT8=
EXTT9=
EXTT10=
EXTT11=
EXTT12=
EXTT13=
EXTT14=
EXTT15=
EXTT16=
EXTT17=
EXTT18=
EXTT19=
EXTT20=
EXTT21=
EXTT22=
EXTT23=
EXTT24=
PLAYORDER=
